<svg width="25" height="25" viewBox="0 0 25 25" fill="none" xmlns="http://www.w3.org/2000/svg">
<path d="M17.3242 5.12695L17.334 5.12207H17.3389L12.5 2.34375L7.66357 5.12207H7.65869L7.67578 5.12939L3.69873 7.42188V17.5781L12.5 22.6562L21.3013 17.5781V7.42188L17.3242 5.12695ZM11.7847 20.5957L8.29102 18.5791V15.1709L5.12695 13.374V9.104L11.7847 12.9443V20.5957ZM5.81543 7.84912L9.104 5.94971L12.4951 7.89551L15.8911 5.94482L19.1919 7.84912L12.5049 11.7065L5.81543 7.84912ZM19.873 13.3862L16.7285 15.1709V18.5669L13.2153 20.5933V12.9492L19.873 9.10889V13.3862Z" fill="white"/>
</svg>
