<svg width="25" height="25" viewBox="0 0 25 25" fill="none" xmlns="http://www.w3.org/2000/svg">
<path d="M22.6562 3.93066H17.0703C15.8716 3.93066 14.6997 4.2749 13.6914 4.92432L12.5 5.68848L11.3086 4.92432C10.3013 4.27503 9.12811 3.93002 7.92969 3.93066H2.34375C1.91162 3.93066 1.5625 4.27979 1.5625 4.71191V18.5791C1.5625 19.0112 1.91162 19.3604 2.34375 19.3604H7.92969C9.12842 19.3604 10.3003 19.7046 11.3086 20.354L12.3926 21.0522C12.4243 21.0718 12.4609 21.084 12.4976 21.084C12.5342 21.084 12.5708 21.0742 12.6025 21.0522L13.6865 20.354C14.6973 19.7046 15.8716 19.3604 17.0703 19.3604H22.6562C23.0884 19.3604 23.4375 19.0112 23.4375 18.5791V4.71191C23.4375 4.27979 23.0884 3.93066 22.6562 3.93066ZM7.92969 17.6025H3.32031V5.68848H7.92969C8.79394 5.68848 9.63379 5.93506 10.3589 6.40137L11.5503 7.16553L11.7188 7.27539V18.5547C10.5566 17.9297 9.25781 17.6025 7.92969 17.6025ZM21.6797 17.6025H17.0703C15.7422 17.6025 14.4434 17.9297 13.2812 18.5547V7.27539L13.4497 7.16553L14.6411 6.40137C15.3662 5.93506 16.2061 5.68848 17.0703 5.68848H21.6797V17.6025ZM9.68994 8.81348H5.15381C5.05859 8.81348 4.98047 8.89648 4.98047 8.99658V10.0952C4.98047 10.1953 5.05859 10.2783 5.15381 10.2783H9.6875C9.78271 10.2783 9.86084 10.1953 9.86084 10.0952V8.99658C9.86328 8.89648 9.78516 8.81348 9.68994 8.81348ZM15.1367 8.99658V10.0952C15.1367 10.1953 15.2148 10.2783 15.3101 10.2783H19.8438C19.939 10.2783 20.0171 10.1953 20.0171 10.0952V8.99658C20.0171 8.89648 19.939 8.81348 19.8438 8.81348H15.3101C15.2148 8.81348 15.1367 8.89648 15.1367 8.99658ZM9.68994 12.2314H5.15381C5.05859 12.2314 4.98047 12.3145 4.98047 12.4146V13.5132C4.98047 13.6133 5.05859 13.6963 5.15381 13.6963H9.6875C9.78271 13.6963 9.86084 13.6133 9.86084 13.5132V12.4146C9.86328 12.3145 9.78516 12.2314 9.68994 12.2314ZM19.8462 12.2314H15.3101C15.2148 12.2314 15.1367 12.3145 15.1367 12.4146V13.5132C15.1367 13.6133 15.2148 13.6963 15.3101 13.6963H19.8438C19.939 13.6963 20.0171 13.6133 20.0171 13.5132V12.4146C20.0195 12.3145 19.9414 12.2314 19.8462 12.2314Z" fill="white"/>
</svg>
