<svg width="32" height="28" viewBox="0 0 32 28" fill="none" xmlns="http://www.w3.org/2000/svg">
<path d="M26.7268 22.2866L26.7288 22.2889L22.3102 26.1659C21.4042 26.9805 20.2328 27.442 19.0117 27.4647L19.0014 27.4649H3.85929C3.29876 27.4885 2.74019 27.3836 2.22682 27.1582C1.70438 26.9289 1.24283 26.5813 0.879353 26.1426C0.515857 25.7041 0.260648 25.1872 0.133812 24.6333C0.00933288 24.0888 0.0120341 23.5226 0.1423 22.9792L1.30811 17.0432C1.41182 16.5265 1.6859 16.0587 2.08708 15.7145L2.14425 15.6654C2.02015 15.4781 1.92937 15.2706 1.87615 15.0519C1.80554 14.7618 1.80307 14.4601 1.86811 14.1698L3.03623 8.22275L3.03804 8.21428C3.26537 7.14714 3.83798 6.18368 4.66823 5.4714L8.71375 1.92178C8.90094 1.70797 9.10643 1.5088 9.32872 1.32672C10.2143 0.601337 11.3162 0.188268 12.4625 0.151702L12.4816 0.151093L27.6421 0.19449C28.202 0.171213 28.7599 0.276195 29.2727 0.50124C29.7952 0.730546 30.2567 1.07826 30.6202 1.51679C30.9836 1.95526 31.2389 2.47221 31.3657 3.02638C31.4904 3.57102 31.4874 4.13679 31.3574 4.67991L28.4616 19.4622L28.4574 19.4802C28.2031 20.5787 27.5952 21.5639 26.7268 22.2866Z" fill="#03301D"/>
<path d="M27.4054 1.56037C27.8037 1.54027 28.2012 1.61368 28.5661 1.77461C28.9309 1.93552 29.2531 2.17951 29.5069 2.48716C29.7606 2.79482 29.9389 3.15753 30.0274 3.54637C30.116 3.93521 30.1123 4.3394 30.0168 4.72657L27.1334 19.5183C26.9309 20.3971 26.4432 21.1844 25.7465 21.7571C25.0498 22.3298 24.1831 22.6559 23.2816 22.6845H8.19557C7.79722 22.7043 7.39969 22.6309 7.03467 22.47C6.66964 22.3091 6.34725 22.0652 6.09312 21.7577C5.839 21.4502 5.66016 21.0877 5.57087 20.6989C5.48158 20.3101 5.48431 19.9058 5.5788 19.5183L6.74304 13.5341C6.81131 13.2421 6.97423 12.9808 7.20642 12.7909C7.43862 12.601 7.72709 12.4932 8.02696 12.4842C10.7798 12.5821 13.4238 12.7889 15.8883 13.6756L16.4323 17.0974C16.4456 17.1801 16.4892 17.2548 16.5545 17.307C16.6199 17.3594 16.7023 17.3855 16.7859 17.3804C16.8819 17.3787 16.9758 17.3517 17.0579 17.302C17.1401 17.2523 17.2077 17.1817 17.2538 17.0974L19.1143 13.6756L22.8355 12.5005C22.9256 12.4717 23.0066 12.42 23.0705 12.3504C23.1344 12.2807 23.1791 12.1956 23.2 12.1035C23.2213 12.0219 23.2113 11.9354 23.172 11.8609C23.1328 11.7864 23.0671 11.7294 22.9878 11.7009L19.7237 10.5312L19.1796 7.10944C19.1664 7.02633 19.1229 6.951 19.0578 6.89787C18.9926 6.84467 18.9101 6.81735 18.826 6.82111C18.7294 6.82329 18.6352 6.85116 18.553 6.90183C18.4708 6.9525 18.4035 7.02414 18.3581 7.10944L16.4976 10.5312C13.7995 11.3051 11.0079 11.7042 8.20104 11.7172C8.0663 11.7287 7.9308 11.7079 7.80562 11.6568C7.68044 11.6057 7.56919 11.5257 7.48103 11.4231C7.39286 11.3206 7.33031 11.1986 7.29848 11.0672C7.26666 10.9358 7.26645 10.7987 7.29794 10.6671L8.46219 4.68301C8.66358 3.80458 9.15017 3.01757 9.846 2.4448C10.5418 1.87202 11.4077 1.54582 12.3085 1.51694L27.4054 1.56037Z" fill="#86EE02"/>
</svg>
