<svg width="164" height="29" viewBox="0 0 164 29" fill="none" xmlns="http://www.w3.org/2000/svg">
<g clip-path="url(#clip0_1001_5)">
<g clip-path="url(#clip1_1001_5)">
<g clip-path="url(#clip2_1001_5)">
<path d="M26.7268 23.2866L26.7288 23.2889L22.3102 27.1659C21.4042 27.9805 20.2328 28.442 19.0117 28.4647L19.0014 28.4649H3.85929C3.29876 28.4885 2.74019 28.3836 2.22682 28.1582C1.70438 27.9289 1.24283 27.5813 0.879353 27.1426C0.515857 26.7041 0.260648 26.1872 0.133812 25.6333C0.00933288 25.0888 0.0120341 24.5226 0.1423 23.9792L1.30811 18.0432C1.41182 17.5265 1.6859 17.0587 2.08708 16.7145L2.14425 16.6654C2.02015 16.4781 1.92937 16.2706 1.87615 16.0519C1.80554 15.7618 1.80307 15.4601 1.86811 15.1698L3.03623 9.22275L3.03804 9.21428C3.26537 8.14714 3.83798 7.18368 4.66823 6.4714L8.71375 2.92178C8.90094 2.70797 9.10643 2.5088 9.32872 2.32672C10.2143 1.60134 11.3162 1.18827 12.4625 1.1517L12.4816 1.15109L27.6421 1.19449C28.202 1.17121 28.7599 1.2762 29.2727 1.50124C29.7952 1.73055 30.2567 2.07826 30.6202 2.51679C30.9836 2.95526 31.2389 3.47221 31.3657 4.02638C31.4904 4.57102 31.4874 5.13679 31.3574 5.67991L28.4616 20.4622L28.4574 20.4802C28.2031 21.5787 27.5952 22.5639 26.7268 23.2866Z" fill="#03301D"/>
<path d="M27.4054 2.56037C27.8037 2.54027 28.2012 2.61368 28.5661 2.77461C28.9309 2.93552 29.2531 3.17951 29.5069 3.48716C29.7606 3.79482 29.9389 4.15753 30.0274 4.54637C30.116 4.93521 30.1123 5.3394 30.0168 5.72657L27.1334 20.5183C26.9309 21.3971 26.4432 22.1844 25.7465 22.7571C25.0498 23.3298 24.1831 23.6559 23.2816 23.6845H8.19557C7.79722 23.7043 7.39969 23.6309 7.03467 23.47C6.66964 23.3091 6.34725 23.0652 6.09312 22.7577C5.839 22.4502 5.66016 22.0877 5.57087 21.6989C5.48158 21.3101 5.48431 20.9058 5.5788 20.5183L6.74304 14.5341C6.81131 14.2421 6.97423 13.9808 7.20642 13.7909C7.43862 13.601 7.72709 13.4932 8.02696 13.4842C10.7798 13.5821 13.4238 13.7889 15.8883 14.6756L16.4323 18.0974C16.4456 18.1801 16.4892 18.2548 16.5545 18.307C16.6199 18.3594 16.7023 18.3855 16.7859 18.3804C16.8819 18.3787 16.9758 18.3517 17.0579 18.302C17.1401 18.2523 17.2077 18.1817 17.2538 18.0974L19.1143 14.6756L22.8355 13.5005C22.9256 13.4717 23.0066 13.42 23.0705 13.3504C23.1344 13.2807 23.1791 13.1956 23.2 13.1035C23.2213 13.0219 23.2113 12.9354 23.172 12.8609C23.1328 12.7864 23.0671 12.7294 22.9878 12.7009L19.7237 11.5312L19.1796 8.10944C19.1664 8.02633 19.1229 7.951 19.0578 7.89787C18.9926 7.84467 18.9101 7.81735 18.826 7.82111C18.7294 7.82329 18.6352 7.85116 18.553 7.90183C18.4708 7.9525 18.4035 8.02414 18.3581 8.10944L16.4976 11.5312C13.7995 12.3051 11.0079 12.7042 8.20104 12.7172C8.0663 12.7287 7.9308 12.7079 7.80562 12.6568C7.68044 12.6057 7.56919 12.5257 7.48103 12.4231C7.39286 12.3206 7.33031 12.1986 7.29848 12.0672C7.26666 11.9358 7.26645 11.7987 7.29794 11.6671L8.46219 5.68301C8.66358 4.80458 9.15017 4.01757 9.846 3.4448C10.5418 2.87202 11.4077 2.54582 12.3085 2.51694L27.4054 2.56037Z" fill="#86EE02"/>
<path d="M120.207 22.3238C117.409 22.3238 115.425 21.1831 114.799 19.0309L118.457 17.3738C118.717 18.2562 119.475 18.6651 120.851 18.6651C121.922 18.6651 122.788 18.3423 122.909 17.6535C123.061 16.7927 122.21 16.6636 120.911 16.4699C118.76 16.1471 115.674 15.3077 116.285 11.8427C116.756 9.17405 119.542 7.12949 122.82 7.12949C125.399 7.12949 127.383 8.27013 128.009 10.4223L124.351 12.0795C124.061 11.3693 123.377 10.7882 122 10.7882C121.038 10.7882 120.461 11.0895 120.355 11.6921C120.211 12.5099 121.127 12.7682 122.531 12.9834C124.659 13.3062 127.575 14.124 126.96 17.6105C126.49 20.2792 123.485 22.3238 120.207 22.3238Z" fill="#03301D"/>
<path d="M142.432 21.9794H146.54L149.771 11.7136L150.589 20.2147C150.7 21.4414 151.686 22.044 152.888 22.044C154.112 22.044 155.25 21.4199 155.849 20.1285L159.667 11.7351L159.041 21.9794H163.127L163.519 9.8412C163.568 8.07645 162.555 7.12949 160.828 7.12949C159.255 7.12949 157.797 7.83968 157.097 9.45385L153.761 17.094L153.109 9.38924C152.979 7.77515 151.803 7.12949 150.273 7.12949C148.503 7.12949 147.116 8.05494 146.529 9.77667L142.432 21.9794Z" fill="#03301D"/>
<path d="M128.726 15.4153C127.967 19.7197 129.6 22.2377 134.233 22.2377C138.844 22.2377 141.407 19.7197 142.166 15.4153L143.57 7.45233H139.527L138.142 15.3077C137.748 17.546 136.71 18.4714 134.896 18.4714C133.104 18.4714 132.394 17.546 132.788 15.3077L134.173 7.45233H130.13L128.726 15.4153Z" fill="#03301D"/>
<path fill-rule="evenodd" clip-rule="evenodd" d="M101.218 21.9794L105.265 21.9579L105.887 18.4284H107.723C112.006 18.4284 114.797 16.3623 115.411 12.8758C116.007 9.49688 113.81 7.45233 109.44 7.45233H103.78L101.218 21.9794ZM107.177 11.111H108.904C110.652 11.111 111.46 11.7351 111.259 12.8758C111.042 14.1025 110.073 14.7697 108.259 14.7697H106.532L107.177 11.111Z" fill="#03301D"/>
<path d="M97.1203 7.45233H101.163L98.6016 21.9794H94.5587L97.1203 7.45233Z" fill="#03301D"/>
<path fill-rule="evenodd" clip-rule="evenodd" d="M78.738 14.7266C77.9751 19.0525 80.7239 22.3022 85.1821 22.3022C89.6402 22.3022 93.5349 19.0525 94.2978 14.7266C95.0606 10.4008 92.3118 7.151 87.8537 7.151C83.3955 7.151 79.5008 10.4008 78.738 14.7266ZM90.1456 14.7266C89.7659 16.8788 87.9001 18.536 85.8459 18.536C83.7916 18.536 82.5105 16.8788 82.8902 14.7266C83.2699 12.5745 85.1349 10.9173 87.1892 10.9173C89.2434 10.9173 90.5253 12.5745 90.1456 14.7266Z" fill="#03301D"/>
<path d="M70.2847 22.3022C65.8704 22.3022 63.0932 18.9664 63.8408 14.7266C64.5884 10.4868 68.4982 7.151 72.9563 7.151C75.5788 7.151 77.9226 8.48532 78.5645 10.9173L74.9457 12.7251C74.5271 11.6275 73.8257 10.8958 72.1211 10.8958C70.045 10.8958 68.3841 12.5099 67.9815 14.7912C67.5603 17.1801 68.6894 18.7081 70.9185 18.7081C72.0986 18.7081 72.8607 18.6005 73.5928 18.041L73.9315 16.0393L70.1488 14.3678H78.1363L78.0236 15.0494H78.0325L77.9075 15.7567L77.9 15.8034L77.8994 15.8037L77.2731 19.3538C75.8335 21.0755 73.2568 22.3022 70.2847 22.3022Z" fill="#03301D"/>
<path fill-rule="evenodd" clip-rule="evenodd" d="M47.8338 14.7266C47.071 19.0525 49.8197 22.3022 54.2779 22.3022C58.736 22.3022 62.6308 19.0525 63.3936 14.7266C64.1563 10.4008 61.4076 7.151 56.9495 7.151C52.4913 7.151 48.5965 10.4008 47.8338 14.7266ZM59.2414 14.7266C58.8619 16.8788 56.9963 18.536 54.942 18.536C52.8878 18.536 51.6065 16.8788 51.986 14.7266C52.3655 12.5745 54.2312 10.9173 56.2854 10.9173C58.3396 10.9173 59.6209 12.5745 59.2414 14.7266Z" fill="#03301D"/>
<path d="M42.5988 7.45233L40.6823 18.3208H47.1947L46.5496 21.9794H39.4909C36.9996 21.9794 36.222 20.6881 36.5825 18.6436L38.5558 7.45233H42.5988Z" fill="#03301D"/>
</g>
</g>
</g>
<defs>
<clipPath id="clip0_1001_5">
<rect width="163.89" height="28" fill="white" transform="translate(0 0.5)"/>
</clipPath>
<clipPath id="clip1_1001_5">
<rect width="163.89" height="28" fill="white" transform="translate(0 0.5)"/>
</clipPath>
<clipPath id="clip2_1001_5">
<rect width="163.902" height="28" fill="white" transform="translate(-0.00622559 0.5)"/>
</clipPath>
</defs>
</svg>
