<svg width="25" height="25" viewBox="0 0 25 25" fill="none" xmlns="http://www.w3.org/2000/svg">
<path d="M21.6797 19.3359H4.88281V4.10156C4.88281 3.99414 4.79492 3.90625 4.6875 3.90625H3.32031C3.21289 3.90625 3.125 3.99414 3.125 4.10156V20.8984C3.125 21.0059 3.21289 21.0938 3.32031 21.0938H21.6797C21.7871 21.0938 21.875 21.0059 21.875 20.8984V19.5312C21.875 19.4238 21.7871 19.3359 21.6797 19.3359ZM7.03125 17.3828H8.39844C8.50586 17.3828 8.59375 17.2949 8.59375 17.1875V13.6719C8.59375 13.5645 8.50586 13.4766 8.39844 13.4766H7.03125C6.92383 13.4766 6.83594 13.5645 6.83594 13.6719V17.1875C6.83594 17.2949 6.92383 17.3828 7.03125 17.3828ZM10.7422 17.3828H12.1094C12.2168 17.3828 12.3047 17.2949 12.3047 17.1875V9.375C12.3047 9.26758 12.2168 9.17969 12.1094 9.17969H10.7422C10.6348 9.17969 10.5469 9.26758 10.5469 9.375V17.1875C10.5469 17.2949 10.6348 17.3828 10.7422 17.3828ZM14.4531 17.3828H15.8203C15.9277 17.3828 16.0156 17.2949 16.0156 17.1875V11.2793C16.0156 11.1719 15.9277 11.084 15.8203 11.084H14.4531C14.3457 11.084 14.2578 11.1719 14.2578 11.2793V17.1875C14.2578 17.2949 14.3457 17.3828 14.4531 17.3828ZM18.1641 17.3828H19.5312C19.6387 17.3828 19.7266 17.2949 19.7266 17.1875V7.42188C19.7266 7.31445 19.6387 7.22656 19.5312 7.22656H18.1641C18.0566 7.22656 17.9688 7.31445 17.9688 7.42188V17.1875C17.9688 17.2949 18.0566 17.3828 18.1641 17.3828Z" fill="white"/>
</svg>
