<svg width="25" height="26" viewBox="0 0 25 26" fill="none" xmlns="http://www.w3.org/2000/svg">
<path d="M22.5781 15.7459L20.979 14.3787C21.0547 13.9148 21.0938 13.4412 21.0938 12.9675C21.0938 12.4939 21.0547 12.0203 20.979 11.5564L22.5781 10.1892C22.6987 10.086 22.7851 9.94843 22.8256 9.79492C22.8662 9.64141 22.8591 9.47919 22.8052 9.32983L22.7832 9.26636C22.343 8.03595 21.6838 6.89535 20.8374 5.89966L20.7935 5.84839C20.6908 5.72767 20.5539 5.64088 20.401 5.59948C20.248 5.55808 20.0861 5.564 19.9365 5.61646L17.9517 6.32202C17.2192 5.72144 16.4014 5.2478 15.5176 4.91577L15.1343 2.84058C15.1054 2.68443 15.0296 2.54078 14.9171 2.42871C14.8046 2.31663 14.6607 2.24145 14.5044 2.21313L14.4385 2.20093C13.1665 1.97144 11.8286 1.97144 10.5566 2.20093L10.4907 2.21313C10.3345 2.24145 10.1905 2.31663 10.078 2.42871C9.96551 2.54078 9.88976 2.68443 9.86084 2.84058L9.4751 4.92554C8.59837 5.25764 7.78191 5.73102 7.05811 6.3269L5.0586 5.61646C4.9091 5.56358 4.74705 5.55745 4.59399 5.59888C4.44092 5.6403 4.30409 5.72733 4.20167 5.84839L4.15772 5.89966C3.31237 6.89605 2.65327 8.03647 2.21192 9.26636L2.18995 9.32983C2.08008 9.63501 2.17042 9.97681 2.417 10.1892L4.03565 11.571C3.95997 12.03 3.92334 12.4988 3.92334 12.9651C3.92334 13.4338 3.95997 13.9026 4.03565 14.3591L2.417 15.741C2.29638 15.8442 2.21005 15.9817 2.1695 16.1353C2.12894 16.2888 2.13607 16.451 2.18995 16.6003L2.21192 16.6638C2.65381 17.8943 3.30811 19.0295 4.15772 20.0305L4.20167 20.0818C4.30434 20.2025 4.44118 20.2893 4.59415 20.3307C4.74713 20.3721 4.90905 20.3662 5.0586 20.3137L7.05811 19.6033C7.78565 20.2014 8.59864 20.675 9.4751 21.0046L9.86084 23.0896C9.88976 23.2457 9.96551 23.3894 10.078 23.5015C10.1905 23.6135 10.3345 23.6887 10.4907 23.717L10.5566 23.7292C11.8403 23.96 13.1548 23.96 14.4385 23.7292L14.5044 23.717C14.6607 23.6887 14.8046 23.6135 14.9171 23.5015C15.0296 23.3894 15.1054 23.2457 15.1343 23.0896L15.5176 21.0144C16.401 20.6832 17.2235 20.2081 17.9517 19.6082L19.9365 20.3137C20.086 20.3666 20.2481 20.3727 20.4011 20.3313C20.5542 20.2899 20.691 20.2028 20.7935 20.0818L20.8374 20.0305C21.687 19.0271 22.3413 17.8943 22.7832 16.6638L22.8052 16.6003C22.915 16.3 22.8247 15.9583 22.5781 15.7459ZM19.2456 11.8445C19.3066 12.2131 19.3384 12.5916 19.3384 12.97C19.3384 13.3484 19.3066 13.7268 19.2456 14.0955L19.0845 15.0745L20.9082 16.6345C20.6317 17.2715 20.2828 17.8744 19.8682 18.4314L17.6025 17.6282L16.8359 18.2581C16.2524 18.7366 15.603 19.1126 14.8999 19.3762L13.9697 19.7253L13.5327 22.0935C12.8432 22.1716 12.147 22.1716 11.4575 22.0935L11.0205 19.7205L10.0977 19.3665C9.40186 19.1028 8.75489 18.7268 8.17627 18.2507L7.40967 17.6184L5.1294 18.429C4.71436 17.8699 4.36768 17.2668 4.08936 16.6321L5.93262 15.0574L5.77393 14.0808C5.71534 13.717 5.6836 13.3411 5.6836 12.97C5.6836 12.5964 5.7129 12.2229 5.77393 11.8591L5.93262 10.8826L4.08936 9.30786C4.36524 8.67065 4.71436 8.07007 5.1294 7.51099L7.40967 8.32153L8.17627 7.68921C8.75489 7.21313 9.40186 6.83716 10.0977 6.57349L11.023 6.22437L11.46 3.85132C12.146 3.77319 12.8467 3.77319 13.5352 3.85132L13.9722 6.21948L14.9023 6.5686C15.603 6.83228 16.2549 7.20825 16.8384 7.68677L17.605 8.31665L19.8706 7.51343C20.2857 8.07251 20.6323 8.67554 20.9106 9.3103L19.0869 10.8704L19.2456 11.8445ZM12.5 8.42896C10.127 8.42896 8.20313 10.3528 8.20313 12.7258C8.20313 15.0989 10.127 17.0227 12.5 17.0227C14.8731 17.0227 16.7969 15.0989 16.7969 12.7258C16.7969 10.3528 14.8731 8.42896 12.5 8.42896ZM14.4336 14.6594C14.18 14.9138 13.8786 15.1154 13.5468 15.2529C13.2149 15.3903 12.8592 15.4608 12.5 15.4602C11.77 15.4602 11.084 15.1746 10.5664 14.6594C10.3121 14.4058 10.1104 14.1044 9.97296 13.7726C9.83553 13.4407 9.76507 13.085 9.76563 12.7258C9.76563 11.9958 10.0513 11.3098 10.5664 10.7922C11.084 10.2747 11.77 9.99146 12.5 9.99146C13.23 9.99146 13.916 10.2747 14.4336 10.7922C14.6879 11.0458 14.8896 11.3472 15.027 11.6791C15.1645 12.0109 15.2349 12.3667 15.2344 12.7258C15.2344 13.4558 14.9487 14.1418 14.4336 14.6594Z" fill="white"/>
</svg>
