<svg width="25" height="25" viewBox="0 0 25 25" fill="none" xmlns="http://www.w3.org/2000/svg">
<path d="M20.5932 18.0029C20.2905 16.167 18.6596 14.8511 16.8017 14.9414C14.9438 15.0317 13.4497 16.5039 13.3301 18.3594C9.58249 18.2422 8.25193 17.3657 8.46921 15.5835C8.54978 14.917 8.95261 14.5605 9.69236 14.3872C10.1416 14.2822 10.6396 14.2676 11.0913 14.3091C11.1328 14.314 11.1767 14.3164 11.2182 14.3213C11.4941 14.3872 11.7749 14.4434 12.0556 14.4873C12.8882 14.624 13.7353 14.6924 14.541 14.6484C16.8066 14.5264 18.3496 13.5278 18.4277 11.4087C18.5034 9.35546 17.0923 7.90038 14.8169 6.92626C14.0869 6.61376 13.313 6.37206 12.539 6.18896C12.1899 6.10595 11.8969 6.0498 11.6797 6.01318C11.4868 4.16015 9.93405 2.74658 8.07126 2.73193C6.20847 2.71728 4.63132 4.10156 4.40671 5.95214C4.1821 7.80273 5.38327 9.52392 7.1948 9.95361C9.00632 10.3833 10.8545 9.38476 11.4843 7.63183C11.7138 7.67333 11.9409 7.71972 12.1679 7.77343C12.8564 7.93456 13.5449 8.14941 14.1797 8.42285C15.9057 9.16015 16.8481 10.1343 16.8042 11.3501C16.7651 12.439 15.9839 12.9419 14.4555 13.0249C13.7842 13.0615 13.0493 13.0029 12.3242 12.8833C12.1216 12.8491 11.936 12.8149 11.7724 12.7783C11.6772 12.7588 11.6113 12.7417 11.582 12.7344L11.5063 12.7197C11.4526 12.7124 11.3623 12.7002 11.2451 12.688C10.6347 12.6318 9.97312 12.6514 9.32859 12.8003C7.98093 13.1152 7.03611 13.9526 6.86032 15.3833C6.47702 18.4643 8.77927 19.8926 13.5986 19.9951C14.3091 21.7139 16.1963 22.6294 17.9834 22.1191C19.7729 21.6089 20.896 19.8389 20.5932 18.0029ZM8.03464 8.42773C6.91159 8.42773 6.00095 7.51708 6.00095 6.39404C6.00095 5.27099 6.91159 4.36034 8.03464 4.36034C9.15769 4.36034 10.0683 5.27099 10.0683 6.39404C10.0683 7.51708 9.15769 8.42773 8.03464 8.42773ZM16.9824 20.6299C15.8593 20.6299 14.9487 19.7192 14.9487 18.5962C14.9487 17.4731 15.8593 16.5625 16.9824 16.5625C18.1054 16.5625 19.0161 17.4731 19.0161 18.5962C19.0161 19.7192 18.1054 20.6299 16.9824 20.6299Z" fill="white"/>
</svg>
