<svg width="20" height="21" viewBox="0 0 20 21" fill="none" xmlns="http://www.w3.org/2000/svg">
<path d="M5.0332 14.7776C5.07227 14.7776 5.11133 14.7737 5.15039 14.7678L8.43555 14.1917C8.47461 14.1838 8.51172 14.1663 8.53906 14.137L16.8184 5.85767C16.8365 5.8396 16.8508 5.81813 16.8606 5.79451C16.8704 5.77088 16.8755 5.74555 16.8755 5.71997C16.8755 5.69439 16.8704 5.66906 16.8606 5.64543C16.8508 5.62181 16.8365 5.60034 16.8184 5.58228L13.5723 2.33423C13.5352 2.29712 13.4863 2.27759 13.4336 2.27759C13.3809 2.27759 13.332 2.29712 13.2949 2.33423L5.01562 10.6135C4.98633 10.6428 4.96875 10.678 4.96094 10.717L4.38477 14.0022C4.36577 14.1068 4.37255 14.2145 4.40454 14.3159C4.43654 14.4173 4.49276 14.5094 4.56836 14.5842C4.69727 14.7092 4.85938 14.7776 5.0332 14.7776ZM6.34961 11.3713L13.4336 4.28931L14.8652 5.72095L7.78125 12.803L6.04492 13.1096L6.34961 11.3713ZM17.1875 16.4182H2.8125C2.4668 16.4182 2.1875 16.6975 2.1875 17.0432V17.7463C2.1875 17.8323 2.25781 17.9026 2.34375 17.9026H17.6562C17.7422 17.9026 17.8125 17.8323 17.8125 17.7463V17.0432C17.8125 16.6975 17.5332 16.4182 17.1875 16.4182Z" fill="black"/>
</svg>
