<svg width="21" height="21" viewBox="0 0 21 21" fill="none" xmlns="http://www.w3.org/2000/svg">
<g clip-path="url(#clip0_1001_29)">
<g clip-path="url(#clip1_1001_29)">
<g clip-path="url(#clip2_1001_29)">
<path d="M4.51527 17.7512C4.12246 18.5678 3.8746 19.1119 1.68931 19.1913C1.75212 17.0825 2.154 16.8563 2.95869 16.4553C3.2965 16.2869 3.71712 16.0775 4.17183 15.7278L3.41089 14.7563C3.05152 15.0322 2.72087 15.1775 2.40119 15.3366C1.06058 16.005 0.428745 16.6635 0.428745 19.8025L0.439351 20.4413L1.05373 20.4275C4.36685 20.4275 4.98591 19.6791 5.60654 18.39C5.74248 18.1075 5.8181 17.9166 6.04716 17.5359L5.12029 16.6941C4.84248 17.0731 4.66904 17.4337 4.51529 17.7512H4.51527ZM14.1887 4.18471C12.8065 4.18471 11.6818 5.30937 11.6818 6.69125C11.6818 8.07375 12.8068 9.19814 14.1887 9.19814C15.5706 9.19814 16.6952 8.07346 16.6952 6.69127C16.6952 5.30939 15.5702 4.18471 14.1887 4.18471ZM14.1887 7.94281C13.4987 7.94281 12.9371 7.38125 12.9371 6.69125C12.9371 6.00154 13.4987 5.43969 14.1887 5.43969C14.8787 5.43969 15.4402 6.00154 15.4402 6.69125C15.4399 7.38156 14.8787 7.94281 14.1887 7.94281ZM20.4157 1.0725C20.3966 0.760623 20.1494 0.510565 19.8376 0.48744C19.8376 0.48744 16.3398 0.23244 12.9748 1.489C11.7454 1.94806 10.7335 2.67527 9.78914 3.77683C9.00164 4.69529 8.21912 6.35558 7.52849 7.73402C7.26162 8.26621 7.00662 8.77529 6.79037 9.16404H3.31351C3.22515 9.16406 3.13779 9.18282 3.05721 9.21907C2.97662 9.25532 2.90464 9.30825 2.84601 9.37435L0.555054 11.8575C0.483041 11.9387 0.433412 12.0372 0.411052 12.1434C0.388693 12.2496 0.394373 12.3598 0.427534 12.4631C0.494722 12.6737 0.668159 12.8331 0.883179 12.8818L4.61255 13.7347C4.8666 14.0484 5.29003 14.5178 5.96755 15.2697L7.38035 16.8359L8.14099 20.0531C8.16566 20.1575 8.21676 20.2537 8.28939 20.3326C8.36201 20.4114 8.45371 20.4703 8.55566 20.5034C8.6188 20.5234 8.6841 20.5341 8.7491 20.5341C8.89837 20.5341 9.04273 20.4807 9.15597 20.3834L11.4716 18.08C11.5401 18.0214 11.5951 17.9486 11.6328 17.8667C11.6705 17.7848 11.69 17.6958 11.69 17.6056V14.3806C12.0013 14.1872 12.5531 13.8894 13.0725 13.5987C14.4878 12.8078 16.6003 11.8231 17.4763 11.0444C18.7097 9.94812 19.1591 9.14437 19.6003 7.95625C20.6494 5.13031 20.4263 1.23689 20.4156 1.07252L20.4157 1.0725ZM18.4278 7.52088C18.0428 8.55744 17.694 9.17771 16.6456 10.1099C15.8709 10.798 13.7525 11.7862 12.4622 12.5077C11.499 13.0462 10.9222 13.3605 10.6694 13.5674C10.5975 13.626 10.5396 13.6998 10.4999 13.7835C10.4602 13.8673 10.4396 13.9588 10.4397 14.0515V17.318L9.12091 18.7671L8.55935 16.3921C8.53512 16.2899 8.48545 16.1954 8.41496 16.1174C7.2656 14.8437 5.52935 12.9181 5.39621 12.7653C5.30837 12.6587 5.18772 12.5842 5.05308 12.5534L2.18996 11.8984L3.59433 10.414H7.14964C7.25646 10.414 7.36149 10.3867 7.45472 10.3345C7.54794 10.2824 7.62625 10.2072 7.68214 10.1162C7.95714 9.66838 8.27621 9.0315 8.64589 8.294C9.27183 7.04494 10.0506 5.39275 10.7381 4.59025C11.5503 3.64244 12.3753 3.04711 13.4118 2.65963C15.7184 1.79775 18.0987 1.70713 19.1868 1.71523C19.2071 2.86773 19.1637 5.53992 18.4278 7.52086V7.52088Z" fill="white"/>
</g>
</g>
</g>
<defs>
<clipPath id="clip0_1001_29">
<rect width="20" height="20" fill="white" transform="translate(0.419983 0.5)"/>
</clipPath>
<clipPath id="clip1_1001_29">
<rect width="20" height="20" fill="white" transform="translate(0.419983 0.5)"/>
</clipPath>
<clipPath id="clip2_1001_29">
<rect width="20" height="20" fill="white" transform="translate(0.419983 0.5)"/>
</clipPath>
</defs>
</svg>
