<svg width="21" height="21" viewBox="0 0 21 21" fill="none" xmlns="http://www.w3.org/2000/svg">
<g clip-path="url(#clip0_1001_189)">
<path d="M18.0573 6.22852L14.8815 3.05273C14.735 2.90625 14.5553 2.79883 14.36 2.74023V2.6875H3.42249C3.07678 2.6875 2.79749 2.9668 2.79749 3.3125V17.6875C2.79749 18.0332 3.07678 18.3125 3.42249 18.3125H17.7975C18.1432 18.3125 18.4225 18.0332 18.4225 17.6875V7.11133C18.4225 6.7793 18.2916 6.46289 18.0573 6.22852ZM8.10999 4.09375H13.11V6.125H8.10999V4.09375ZM17.0162 16.9062H4.20374V4.09375H6.85999V6.75C6.85999 7.0957 7.13928 7.375 7.48499 7.375H13.735C14.0807 7.375 14.36 7.0957 14.36 6.75V4.51953L17.0162 7.17578V16.9062ZM10.61 9.13281C9.05725 9.13281 7.79749 10.3926 7.79749 11.9453C7.79749 13.498 9.05725 14.7578 10.61 14.7578C12.1627 14.7578 13.4225 13.498 13.4225 11.9453C13.4225 10.3926 12.1627 9.13281 10.61 9.13281ZM10.61 13.5078C9.7467 13.5078 9.04749 12.8086 9.04749 11.9453C9.04749 11.082 9.7467 10.3828 10.61 10.3828C11.4733 10.3828 12.1725 11.082 12.1725 11.9453C12.1725 12.8086 11.4733 13.5078 10.61 13.5078Z" fill="white"/>
</g>
<defs>
<clipPath id="clip0_1001_189">
<rect width="20" height="20" fill="white" transform="translate(0.609985 0.5)"/>
</clipPath>
</defs>
</svg>
