<svg width="90" height="52" viewBox="0 0 90 52" fill="none" xmlns="http://www.w3.org/2000/svg">
<path d="M59.0054 1.03652C62.0316 0.143186 63.5806 2.14995 65.3033 3.52745C71.1254 8.18309 76.8377 12.9767 82.6907 17.5924C84.1346 18.5162 85.6637 19.2995 87.2571 19.9315C89.9879 21.3229 90.5461 22.6773 89.1872 25.4599C88.4678 26.8541 87.5469 28.1348 86.4543 29.2606C80.3842 35.7382 74.2992 42.2036 68.0949 48.5516C66.928 49.7733 65.4403 50.6413 63.8025 51.0558C61.1125 51.6086 60.2224 50.3733 60.5754 47.6184C60.9362 44.8025 61.1438 41.9671 61.4325 38.9954C56.931 37.7478 52.8628 38.8789 48.8285 39.3372C35.428 40.8593 22.0484 42.5638 8.65515 44.1512C4.29236 44.6683 2.18483 43.2166 1.21067 38.952C0.932995 37.2558 0.787577 35.5406 0.77573 33.8219C0.59283 31.11 0.5243 28.3869 0.23916 25.6862C-0.27578 20.8094 0.49875 19.5594 5.21723 18.6366C18.5917 16.0516 32.13 14.4018 45.7338 13.6992C48.7408 13.5368 51.7365 13.1742 54.7419 12.9695C56.5713 12.845 57.6351 12.1245 57.8257 10.1414C58.1114 7.16857 58.5839 4.21369 59.0054 1.03652ZM62.3527 6.226C62.0543 8.05522 61.6745 9.57735 61.5789 11.117C61.2705 16.0818 60.6409 16.7859 55.8218 17.1315C46.2312 17.8193 36.6284 18.3727 27.0544 19.2438C20.3454 19.8541 13.6651 20.8238 6.99381 21.7849C4.15392 22.194 3.72291 23.1557 4.14963 25.901C4.47636 28.0029 4.58205 30.1415 4.73126 32.2676C4.81158 33.4121 4.62835 34.59 4.81983 35.7091C5.57366 40.1147 7.28817 41.3084 10.7828 40.5579C14.0053 39.8658 17.2828 39.3821 20.5581 38.9921C32.8064 37.5338 45.0667 36.1767 57.3153 34.7207C59.8814 34.4277 62.4803 34.6683 64.949 35.4273C64.668 38.6402 64.4017 41.6842 64.0535 45.6655C65.2785 44.9659 66.4492 44.1753 67.5557 43.3003C72.5772 38.3781 77.5292 33.3852 82.5318 28.4436C85.0962 25.9104 85.0676 24.5085 82.2333 22.2382C78.6499 19.368 75.0328 16.5398 71.4544 13.6635C68.5745 11.3487 65.7304 8.98926 62.3527 6.226Z" fill="black"/>
</svg>
