<svg width="25" height="25" viewBox="0 0 25 25" fill="none" xmlns="http://www.w3.org/2000/svg">
<path fill-rule="evenodd" clip-rule="evenodd" d="M6.05469 18.3594H7.8125V6.44531H6.05469V18.3594Z" fill="white"/>
<path fill-rule="evenodd" clip-rule="evenodd" d="M18.0664 21.0693C19.5766 21.0693 20.8008 19.8451 20.8008 18.335C20.8008 17.1551 20.0535 16.1498 19.0064 15.7665L19.006 13.0068C19.0059 12.4713 18.6618 11.9965 18.1529 11.8299L7.53523 8.35327L6.98823 10.0238L17.2482 13.3834L17.2486 15.725C16.1379 16.0727 15.332 17.1097 15.332 18.335C15.332 19.8451 16.5562 21.0693 18.0664 21.0693ZM6.93359 22.5586C8.44375 22.5586 9.66797 21.3344 9.66797 19.8242C9.66797 18.3141 8.44375 17.0898 6.93359 17.0898C5.42344 17.0898 4.19922 18.3141 4.19922 19.8242C4.19922 21.3344 5.42344 22.5586 6.93359 22.5586ZM18.0664 19.5068C17.4192 19.5068 16.8945 18.9822 16.8945 18.335C16.8945 17.6877 17.4192 17.1631 18.0664 17.1631C18.7136 17.1631 19.2383 17.6877 19.2383 18.335C19.2383 18.9822 18.7136 19.5068 18.0664 19.5068ZM6.93359 20.9961C6.28638 20.9961 5.76172 20.4714 5.76172 19.8242C5.76172 19.177 6.28638 18.6523 6.93359 18.6523C7.58081 18.6523 8.10547 19.177 8.10547 19.8242C8.10547 20.4714 7.58081 20.9961 6.93359 20.9961ZM6.93359 7.91016C8.44375 7.91016 9.66797 6.68594 9.66797 5.17578C9.66797 3.66562 8.44375 2.44141 6.93359 2.44141C5.42344 2.44141 4.19922 3.66562 4.19922 5.17578C4.19922 6.68594 5.42344 7.91016 6.93359 7.91016ZM6.93359 6.34766C6.28638 6.34766 5.76172 5.823 5.76172 5.17578C5.76172 4.52856 6.28638 4.00391 6.93359 4.00391C7.58081 4.00391 8.10547 4.52856 8.10547 5.17578C8.10547 5.823 7.58081 6.34766 6.93359 6.34766Z" fill="white"/>
</svg>
